<mxfile host="app.diagrams.net" modified="2024-06-03T21:00:02.687Z" agent="Mozilla/5.0 (Windows NT 10.0; Win64; x64; rv:126.0) Gecko/20100101 Firefox/126.0" etag="Gl9VvAqNnueGmzePjFsi" version="24.4.13" type="device">
  <diagram name="Страница — 1" id="pnVfo1tQHhGyBZYrkzV3">
    <mxGraphModel dx="989" dy="506" grid="1" gridSize="10" guides="1" tooltips="1" connect="1" arrows="1" fold="1" page="1" pageScale="1" pageWidth="827" pageHeight="1169" math="0" shadow="0">
      <root>
        <mxCell id="0" />
        <mxCell id="1" parent="0" />
        <mxCell id="wWrzt0xYPidmHI5CVbgr-1" value="" style="shape=umlActor;verticalLabelPosition=bottom;verticalAlign=top;html=1;outlineConnect=0;" parent="1" vertex="1">
          <mxGeometry x="384" y="240" width="30" height="60" as="geometry" />
        </mxCell>
        <mxCell id="wWrzt0xYPidmHI5CVbgr-3" value="" style="ellipse;whiteSpace=wrap;html=1;" parent="1" vertex="1">
          <mxGeometry x="240" y="330" width="100" height="60" as="geometry" />
        </mxCell>
        <mxCell id="wWrzt0xYPidmHI5CVbgr-4" value="&lt;font style=&quot;font-size: 10px;&quot;&gt;Редактировать шаблон&lt;br&gt;&lt;/font&gt;" style="text;html=1;align=center;verticalAlign=middle;whiteSpace=wrap;rounded=0;" parent="1" vertex="1">
          <mxGeometry x="260" y="345" width="60" height="30" as="geometry" />
        </mxCell>
        <mxCell id="wWrzt0xYPidmHI5CVbgr-8" value="" style="ellipse;whiteSpace=wrap;html=1;" parent="1" vertex="1">
          <mxGeometry x="349" y="360" width="100" height="60" as="geometry" />
        </mxCell>
        <mxCell id="wWrzt0xYPidmHI5CVbgr-9" value="&lt;font style=&quot;font-size: 10px;&quot;&gt;Задать поля шаблону&lt;br&gt;&lt;/font&gt;" style="text;html=1;align=center;verticalAlign=middle;whiteSpace=wrap;rounded=0;" parent="1" vertex="1">
          <mxGeometry x="369" y="375" width="60" height="30" as="geometry" />
        </mxCell>
        <mxCell id="wWrzt0xYPidmHI5CVbgr-10" value="" style="endArrow=none;html=1;rounded=0;exitX=0.5;exitY=0;exitDx=0;exitDy=0;" parent="1" source="wWrzt0xYPidmHI5CVbgr-29" target="wWrzt0xYPidmHI5CVbgr-1" edge="1">
          <mxGeometry width="50" height="50" relative="1" as="geometry">
            <mxPoint x="360" y="340" as="sourcePoint" />
            <mxPoint x="410" y="290" as="targetPoint" />
          </mxGeometry>
        </mxCell>
        <mxCell id="wWrzt0xYPidmHI5CVbgr-11" value="" style="ellipse;whiteSpace=wrap;html=1;" parent="1" vertex="1">
          <mxGeometry x="460" y="330" width="100" height="60" as="geometry" />
        </mxCell>
        <mxCell id="wWrzt0xYPidmHI5CVbgr-12" value="&lt;font style=&quot;font-size: 10px;&quot;&gt;просмотреть список документов&lt;br&gt;&lt;/font&gt;" style="text;html=1;align=center;verticalAlign=middle;whiteSpace=wrap;rounded=0;" parent="1" vertex="1">
          <mxGeometry x="480" y="345" width="60" height="30" as="geometry" />
        </mxCell>
        <mxCell id="wWrzt0xYPidmHI5CVbgr-15" value="" style="ellipse;whiteSpace=wrap;html=1;" parent="1" vertex="1">
          <mxGeometry x="490" y="240" width="100" height="60" as="geometry" />
        </mxCell>
        <mxCell id="wWrzt0xYPidmHI5CVbgr-16" value="&lt;font style=&quot;font-size: 10px;&quot;&gt;Переименовать документ&lt;/font&gt;" style="text;html=1;align=center;verticalAlign=middle;whiteSpace=wrap;rounded=0;" parent="1" vertex="1">
          <mxGeometry x="510" y="255" width="60" height="30" as="geometry" />
        </mxCell>
        <mxCell id="wWrzt0xYPidmHI5CVbgr-17" value="" style="ellipse;whiteSpace=wrap;html=1;" parent="1" vertex="1">
          <mxGeometry x="460" y="150" width="100" height="60" as="geometry" />
        </mxCell>
        <mxCell id="wWrzt0xYPidmHI5CVbgr-18" value="&lt;font style=&quot;font-size: 10px;&quot;&gt;Создать документ&lt;/font&gt;" style="text;html=1;align=center;verticalAlign=middle;whiteSpace=wrap;rounded=0;" parent="1" vertex="1">
          <mxGeometry x="480" y="165" width="60" height="30" as="geometry" />
        </mxCell>
        <mxCell id="wWrzt0xYPidmHI5CVbgr-20" value="" style="ellipse;whiteSpace=wrap;html=1;" parent="1" vertex="1">
          <mxGeometry x="240" y="150" width="100" height="60" as="geometry" />
        </mxCell>
        <mxCell id="wWrzt0xYPidmHI5CVbgr-21" value="&lt;font style=&quot;font-size: 10px;&quot;&gt;Создать шаблон&lt;/font&gt;" style="text;html=1;align=center;verticalAlign=middle;whiteSpace=wrap;rounded=0;" parent="1" vertex="1">
          <mxGeometry x="260" y="165" width="60" height="30" as="geometry" />
        </mxCell>
        <mxCell id="wWrzt0xYPidmHI5CVbgr-23" value="" style="ellipse;whiteSpace=wrap;html=1;" parent="1" vertex="1">
          <mxGeometry x="349" y="120" width="100" height="60" as="geometry" />
        </mxCell>
        <mxCell id="wWrzt0xYPidmHI5CVbgr-24" value="&lt;font style=&quot;font-size: 10px;&quot;&gt;Создать документ из шаблона&lt;br&gt;&lt;/font&gt;" style="text;html=1;align=center;verticalAlign=middle;whiteSpace=wrap;rounded=0;" parent="1" vertex="1">
          <mxGeometry x="369" y="135" width="60" height="30" as="geometry" />
        </mxCell>
        <mxCell id="wWrzt0xYPidmHI5CVbgr-26" value="" style="ellipse;whiteSpace=wrap;html=1;" parent="1" vertex="1">
          <mxGeometry x="210" y="240" width="100" height="60" as="geometry" />
        </mxCell>
        <mxCell id="wWrzt0xYPidmHI5CVbgr-27" value="&lt;font style=&quot;font-size: 10px;&quot;&gt;Переименовать шаблон&lt;/font&gt;" style="text;html=1;align=center;verticalAlign=middle;whiteSpace=wrap;rounded=0;" parent="1" vertex="1">
          <mxGeometry x="230" y="255" width="60" height="30" as="geometry" />
        </mxCell>
        <mxCell id="wWrzt0xYPidmHI5CVbgr-29" value="&lt;font style=&quot;font-size: 10px;&quot;&gt;Пользователь&lt;/font&gt;" style="text;html=1;align=center;verticalAlign=middle;resizable=0;points=[];autosize=1;strokeColor=none;fillColor=none;" parent="1" vertex="1">
          <mxGeometry x="358" y="300" width="83" height="26" as="geometry" />
        </mxCell>
        <mxCell id="wWrzt0xYPidmHI5CVbgr-31" value="" style="endArrow=classic;html=1;rounded=0;entryX=1;entryY=1;entryDx=0;entryDy=0;" parent="1" source="wWrzt0xYPidmHI5CVbgr-1" target="wWrzt0xYPidmHI5CVbgr-20" edge="1">
          <mxGeometry width="50" height="50" relative="1" as="geometry">
            <mxPoint x="356" y="253" as="sourcePoint" />
            <mxPoint x="406" y="203" as="targetPoint" />
          </mxGeometry>
        </mxCell>
        <mxCell id="wWrzt0xYPidmHI5CVbgr-32" value="" style="endArrow=classic;html=1;rounded=0;entryX=0.5;entryY=1;entryDx=0;entryDy=0;" parent="1" target="wWrzt0xYPidmHI5CVbgr-23" edge="1">
          <mxGeometry width="50" height="50" relative="1" as="geometry">
            <mxPoint x="399" y="234" as="sourcePoint" />
            <mxPoint x="406" y="203" as="targetPoint" />
          </mxGeometry>
        </mxCell>
        <mxCell id="wWrzt0xYPidmHI5CVbgr-33" value="" style="endArrow=classic;html=1;rounded=0;entryX=0;entryY=1;entryDx=0;entryDy=0;" parent="1" source="wWrzt0xYPidmHI5CVbgr-1" target="wWrzt0xYPidmHI5CVbgr-17" edge="1">
          <mxGeometry width="50" height="50" relative="1" as="geometry">
            <mxPoint x="356" y="253" as="sourcePoint" />
            <mxPoint x="406" y="203" as="targetPoint" />
          </mxGeometry>
        </mxCell>
        <mxCell id="wWrzt0xYPidmHI5CVbgr-34" value="" style="endArrow=classic;html=1;rounded=0;entryX=0;entryY=0.5;entryDx=0;entryDy=0;" parent="1" source="wWrzt0xYPidmHI5CVbgr-1" target="wWrzt0xYPidmHI5CVbgr-15" edge="1">
          <mxGeometry width="50" height="50" relative="1" as="geometry">
            <mxPoint x="356" y="253" as="sourcePoint" />
            <mxPoint x="406" y="203" as="targetPoint" />
          </mxGeometry>
        </mxCell>
        <mxCell id="wWrzt0xYPidmHI5CVbgr-35" value="" style="endArrow=classic;html=1;rounded=0;entryX=0;entryY=0;entryDx=0;entryDy=0;" parent="1" source="wWrzt0xYPidmHI5CVbgr-1" target="wWrzt0xYPidmHI5CVbgr-11" edge="1">
          <mxGeometry width="50" height="50" relative="1" as="geometry">
            <mxPoint x="356" y="323" as="sourcePoint" />
            <mxPoint x="406" y="273" as="targetPoint" />
          </mxGeometry>
        </mxCell>
        <mxCell id="wWrzt0xYPidmHI5CVbgr-36" value="" style="endArrow=classic;html=1;rounded=0;entryX=0.5;entryY=0;entryDx=0;entryDy=0;" parent="1" source="wWrzt0xYPidmHI5CVbgr-29" target="wWrzt0xYPidmHI5CVbgr-8" edge="1">
          <mxGeometry width="50" height="50" relative="1" as="geometry">
            <mxPoint x="356" y="323" as="sourcePoint" />
            <mxPoint x="406" y="273" as="targetPoint" />
          </mxGeometry>
        </mxCell>
        <mxCell id="wWrzt0xYPidmHI5CVbgr-37" value="" style="endArrow=classic;html=1;rounded=0;entryX=1;entryY=0;entryDx=0;entryDy=0;" parent="1" source="wWrzt0xYPidmHI5CVbgr-1" target="wWrzt0xYPidmHI5CVbgr-3" edge="1">
          <mxGeometry width="50" height="50" relative="1" as="geometry">
            <mxPoint x="355" y="310" as="sourcePoint" />
            <mxPoint x="405" y="260" as="targetPoint" />
          </mxGeometry>
        </mxCell>
        <mxCell id="wWrzt0xYPidmHI5CVbgr-38" value="" style="endArrow=classic;html=1;rounded=0;entryX=1;entryY=0.5;entryDx=0;entryDy=0;" parent="1" source="wWrzt0xYPidmHI5CVbgr-1" target="wWrzt0xYPidmHI5CVbgr-26" edge="1">
          <mxGeometry width="50" height="50" relative="1" as="geometry">
            <mxPoint x="295" y="321" as="sourcePoint" />
            <mxPoint x="345" y="271" as="targetPoint" />
          </mxGeometry>
        </mxCell>
      </root>
    </mxGraphModel>
  </diagram>
</mxfile>
